HIERARCHY
ROOT joint_Root
{
	OFFSET 0.0 0.0 0.0
	CHANNELS 6 Xposition Yposition Zposition Zrotation Xrotation Yrotation 
	JOINT Hips
	{
		OFFSET -17.1583 93.1646 452.98
		CHANNELS 6 Xposition Yposition Zposition Zrotation Xrotation Yrotation 
		JOINT Spine
		{
			OFFSET 15.7357 0.0 0.0
			CHANNELS 6 Xposition Yposition Zposition Zrotation Xrotation Yrotation 
			JOINT Chest
			{
				OFFSET 8.98455 -0.406207 0.0
				CHANNELS 6 Xposition Yposition Zposition Zrotation Xrotation Yrotation 
				JOINT Neck
				{
					OFFSET 16.3773 0.0 0.0
					CHANNELS 6 Xposition Yposition Zposition Zrotation Xrotation Yrotation 
					JOINT Head
					{
						OFFSET 6.45672 0.0 0.0
						CHANNELS 6 Xposition Yposition Zposition Zrotation Xrotation Yrotation 
						End Site
						{
							OFFSET 0.0 0.0 0.0
						}
					}
				}
				JOINT Shoulder_L
				{
					OFFSET 12.9942 -0.242716 4.98039
					CHANNELS 6 Xposition Yposition Zposition Zrotation Xrotation Yrotation 
					JOINT UpperArm_L
					{
						OFFSET 5.34809 0.0 0.0
						CHANNELS 6 Xposition Yposition Zposition Zrotation Xrotation Yrotation 
						JOINT LowerArm_L
						{
							OFFSET 24.3286 1.87007e-05 0.0
							CHANNELS 6 Xposition Yposition Zposition Zrotation Xrotation Yrotation 
							JOINT Hand_L
							{
								OFFSET 22.2916 0.0 0.0
								CHANNELS 6 Xposition Yposition Zposition Zrotation Xrotation Yrotation 
								End Site
								{
									OFFSET 0.0 0.0 0.0
								}
							}
						}
					}
				}
				JOINT Shoulder_R
				{
					OFFSET 12.9945 -0.242716 -4.98039
					CHANNELS 6 Xposition Yposition Zposition Zrotation Xrotation Yrotation 
					JOINT UpperArm_R
					{
						OFFSET -5.34813 0.0 0.0
						CHANNELS 6 Xposition Yposition Zposition Zrotation Xrotation Yrotation 
						JOINT LowerArm_R
						{
							OFFSET -24.3289 0.000322201 0.0
							CHANNELS 6 Xposition Yposition Zposition Zrotation Xrotation Yrotation 
							JOINT Hand_R
							{
								OFFSET -22.2915 -0.000108084 0.0
								CHANNELS 6 Xposition Yposition Zposition Zrotation Xrotation Yrotation 
								End Site
								{
									OFFSET 0.0 0.0 0.0
								}
							}
						}
					}
				}
			}
		}
		JOINT UpperLeg_L
		{
			OFFSET -2.19248 -6.46944 0.0
			CHANNELS 6 Xposition Yposition Zposition Zrotation Xrotation Yrotation 
			JOINT LowerLeg_L
			{
				OFFSET 39.0811 0.0 -1.23785e-05
				CHANNELS 6 Xposition Yposition Zposition Zrotation Xrotation Yrotation 
				JOINT Foot_L
				{
					OFFSET 40.9854 0.0 -1.26872e-05
					CHANNELS 6 Xposition Yposition Zposition Zrotation Xrotation Yrotation 
					JOINT Toes_L
					{
						OFFSET 11.7543 0.0 0.0
						CHANNELS 6 Xposition Yposition Zposition Zrotation Xrotation Yrotation 
						End Site
						{
							OFFSET 0.0 0.0 0.0
						}
					}
				}
			}
		}
		JOINT UpperLeg_R
		{
			OFFSET -2.19251 6.46944 0.0
			CHANNELS 6 Xposition Yposition Zposition Zrotation Xrotation Yrotation 
			JOINT LowerLeg_R
			{
				OFFSET -39.0811 -0.00228153 -0.0401928
				CHANNELS 6 Xposition Yposition Zposition Zrotation Xrotation Yrotation 
				JOINT Foot_R
				{
					OFFSET -40.9854 0.0 0.0
					CHANNELS 6 Xposition Yposition Zposition Zrotation Xrotation Yrotation 
					JOINT Toes_R
					{
						OFFSET -11.7543 0.0 0.0
						CHANNELS 6 Xposition Yposition Zposition Zrotation Xrotation Yrotation 
						End Site
						{
							OFFSET 0.0 0.0 0.0
						}
					}
				}
			}
		}
	}
}
MOTION
Frames:	7
Frame Time:	0.0333333
0.000000 0.000000 0.000000 0.000000 0.000000 -0.000000 191.993000 93.061500 -99.142500 90.296700 1.108910 -1.062380 15.735700 0.000005 -0.000001 66.686900 87.900300 -66.381400 8.984550 -0.406207 -0.000000 -3.905800 -1.691950 0.553551 16.377300 -0.000001 -0.000001 3.905950 1.900860 -3.291640 6.456720 -0.000001 -0.000000 9.160340 2.159130 1.383030 12.994200 -0.242716 4.980390 -92.476600 6.908960 -70.224100 5.348090 -0.000007 -0.000001 -72.470500 -6.365820 -3.310670 24.328600 0.000019 0.000005 27.628500 25.154300 -50.919500 22.291600 -0.000001 0.000005 45.689500 4.559140 15.611400 12.994500 -0.242716 -4.980390 89.335000 2.094030 -72.376800 -5.348130 -0.000001 -0.000004 -69.773100 -1.549040 8.850060 -24.328900 0.000322 -0.000009 0.037760 0.249984 -8.824500 -22.291500 -0.000108 -0.000004 42.703100 5.366790 -1.887590 -2.192480 -6.469440 -0.000000 177.004000 -3.899140 -1.606990 39.081100 -0.000007 -0.000012 -0.004864 0.017757 15.317900 40.985400 -0.000006 -0.000013 -1.218810 13.106900 -68.312700 11.754300 -0.000000 0.000003 -0.001267 0.186763 -9.000460 -2.192510 6.469440 -0.000001 -179.269000 -6.928880 152.236000 -39.081100 -0.002282 -0.040193 -0.088806 0.059049 57.312300 -40.985400 0.000008 0.000006 0.211010 -16.281800 -63.167200 -11.754300 -0.000006 -0.000006 -0.003751 0.216488 -7.787750
0.000000 0.000000 0.000000 0.000000 0.000000 -0.000000 191.844000 93.269900 -96.478000 89.206800 0.868703 -1.881120 15.735700 0.000005 -0.000001 55.838200 87.958100 -55.106000 8.984550 -0.406207 -0.000000 -4.373210 -2.368910 1.375050 16.377300 -0.000001 -0.000001 3.895630 2.148920 -3.396900 6.456720 -0.000001 -0.000000 9.135310 2.766360 1.028150 12.994200 -0.242716 4.980390 -92.369300 6.667480 -70.386200 5.348090 -0.000007 -0.000001 -71.784000 -7.392020 -3.882500 24.328600 0.000019 0.000005 30.401400 23.652200 -55.636600 22.291600 -0.000001 0.000005 45.561800 4.543930 15.867900 12.994500 -0.242716 -4.980390 89.444000 1.708160 -71.966600 -5.348130 -0.000001 -0.000004 -67.216500 -4.159390 11.069800 -24.328900 0.000322 -0.000009 0.085129 0.550532 -8.895720 -22.291500 -0.000108 -0.000004 42.816500 5.355560 -1.544640 -2.192480 -6.469440 -0.000000 178.443000 -5.118560 1.103030 39.081100 -0.000007 -0.000012 0.000041 -0.000199 11.929900 40.985400 -0.000006 -0.000013 -1.338510 14.125600 -67.698800 11.754300 -0.000000 0.000003 -0.000968 0.182585 -9.170300 -2.192510 6.469440 -0.000001 -178.739000 -9.399900 150.881000 -39.081100 -0.002282 -0.040193 -0.055085 0.054581 46.908100 -40.985400 0.000008 0.000006 -0.345303 -16.056900 -63.973500 -11.754300 -0.000006 -0.000006 -0.004276 0.221951 -7.565250
0.000000 0.000000 0.000000 0.000000 0.000000 -0.000000 191.785000 93.197400 -93.810300 88.853000 0.778710 -2.496910 15.735700 0.000005 -0.000001 48.755400 87.851500 -47.876700 8.984550 -0.406207 -0.000000 -4.515170 -2.924580 1.643490 16.377300 -0.000001 -0.000001 3.463410 2.301120 -3.307560 6.456720 -0.000001 -0.000000 8.770930 3.201970 0.735144 12.994200 -0.242716 4.980390 -92.289100 6.520370 -70.607200 5.348090 -0.000007 -0.000001 -70.984700 -8.328800 -4.603020 24.328600 0.000019 0.000005 32.665000 22.144100 -59.547200 22.291600 -0.000001 0.000005 45.696700 4.517090 16.316300 12.994500 -0.242716 -4.980390 89.494200 1.536250 -71.774200 -5.348130 -0.000001 -0.000004 -64.686300 -6.230120 13.150900 -24.328900 0.000322 -0.000009 0.112514 0.673847 -9.559900 -22.291500 -0.000108 -0.000004 42.972600 5.351100 -1.411510 -2.192480 -6.469440 -0.000000 179.241000 -6.917110 3.554720 39.081100 -0.000007 -0.000012 0.001853 -0.011105 9.477530 40.985400 -0.000006 -0.000013 -1.392130 15.926400 -67.234300 11.754300 -0.000000 0.000003 -0.000097 0.169243 -9.712330 -2.192510 6.469440 -0.000001 -178.878000 -10.178300 150.750000 -39.081100 -0.002282 -0.040193 -0.023160 0.038387 34.569600 -40.985400 0.000008 0.000006 -0.899112 -15.416000 -62.791500 -11.754300 -0.000006 -0.000006 -0.005158 0.230658 -7.210490
0.000000 0.000000 0.000000 0.000000 0.000000 -0.000000 191.796000 92.819400 -91.009300 89.063400 0.970585 -2.720100 15.735700 0.000005 -0.000001 45.694800 87.607300 -44.891000 8.984550 -0.406207 -0.000000 -4.320970 -3.424560 1.479670 16.377300 -0.000001 -0.000001 2.835670 2.392650 -3.156910 6.456720 -0.000001 -0.000000 8.175750 3.485810 0.675633 12.994200 -0.242716 4.980390 -92.239900 6.490910 -70.914800 5.348090 -0.000007 -0.000001 -70.278600 -9.267890 -5.407650 24.328600 0.000019 0.000005 34.194700 20.793100 -62.414600 22.291600 -0.000001 0.000005 46.287400 4.498290 16.627200 12.994500 -0.242716 -4.980390 89.527300 1.430690 -71.714200 -5.348130 -0.000001 -0.000004 -62.444400 -8.223900 14.827400 -24.328900 0.000322 -0.000009 0.345337 1.998770 -9.833470 -22.291500 -0.000108 -0.000004 43.395300 5.349590 -1.365120 -2.192480 -6.469440 -0.000000 179.682000 -8.925800 5.690600 39.081100 -0.000007 -0.000012 0.001282 -0.008372 8.713720 40.985400 -0.000006 -0.000013 -1.478480 18.325600 -67.553200 11.754300 -0.000000 0.000003 0.000580 0.157212 -10.200800 -2.192510 6.469440 -0.000001 -178.779000 -8.839810 151.947000 -39.081100 -0.002282 -0.040193 -0.005836 0.022702 21.959900 -40.985400 0.000008 0.000006 -1.352580 -14.420400 -62.434200 -11.754300 -0.000006 -0.000006 -0.006334 0.241507 -6.768120
0.000000 0.000000 0.000000 0.000000 0.000000 -0.000000 191.857000 92.216200 -88.005000 89.430800 1.212620 -2.783530 15.735700 0.000005 -0.000001 45.126900 87.374800 -44.443000 8.984550 -0.406207 -0.000000 -4.026800 -3.772120 1.236050 16.377300 -0.000001 -0.000001 2.104210 2.366520 -2.910460 6.456720 -0.000001 -0.000000 7.575470 3.629950 0.576675 12.994200 -0.242716 4.980390 -92.244100 6.624660 -71.238800 5.348090 -0.000007 -0.000001 -69.712900 -9.983050 -6.120310 24.328600 0.000019 0.000005 34.706200 19.647400 -64.104900 22.291600 -0.000001 0.000005 46.703700 4.477690 16.967200 12.994500 -0.242716 -4.980390 89.556300 1.343250 -71.717500 -5.348130 -0.000001 -0.000004 -60.681500 -9.422630 15.928000 -24.328900 0.000322 -0.000009 0.574504 3.454140 -9.466320 -22.291500 -0.000108 -0.000004 43.830000 5.357830 -1.612370 -2.192480 -6.469440 -0.000000 179.763000 -9.085620 7.276090 39.081100 -0.000007 -0.000012 0.000481 -0.002858 9.570030 40.985400 -0.000006 -0.000013 -1.459440 19.049400 -68.725200 11.754300 -0.000000 0.000003 0.001340 0.140745 -10.869100 -2.192510 6.469440 -0.000001 -177.940000 -5.934680 154.015000 -39.081100 -0.002282 -0.040193 0.004208 -0.004917 10.022600 -40.985400 0.000008 0.000006 -1.797210 -10.671600 -60.444800 -11.754300 -0.000006 -0.000006 -0.006505 0.243024 -6.706230
0.000000 0.000000 0.000000 0.000000 0.000000 -0.000000 191.867000 91.505700 -84.705300 89.584900 1.598300 -2.788630 15.735700 0.000005 -0.000001 45.500700 87.175900 -44.848500 8.984550 -0.406207 -0.000000 -3.718620 -4.021880 1.174740 16.377300 -0.000001 -0.000001 1.418440 2.325810 -2.693730 6.456720 -0.000001 -0.000000 6.985750 3.627410 0.456927 12.994200 -0.242716 4.980390 -92.236600 6.728190 -71.564100 5.348090 -0.000007 -0.000001 -69.666500 -10.211500 -6.746690 24.328600 0.000019 0.000005 34.503700 19.267000 -64.356900 22.291600 -0.000001 0.000005 47.591300 4.451950 17.383700 12.994500 -0.242716 -4.980390 89.548500 1.373860 -71.804600 -5.348130 -0.000001 -0.000004 -59.518100 -10.139800 16.625200 -24.328900 0.000322 -0.000009 0.613228 3.877430 -9.009190 -22.291500 -0.000108 -0.000004 44.603500 5.362640 -1.760560 -2.192480 -6.469440 -0.000000 -179.973000 -8.507390 8.447790 39.081100 -0.000007 -0.000012 -0.000759 0.003671 11.669700 40.985400 -0.000006 -0.000013 -1.321960 19.230600 -70.299400 11.754300 -0.000000 0.000003 0.002189 0.112845 -12.000700 -2.192510 6.469440 -0.000001 -177.137000 -4.171600 152.919000 -39.081100 -0.002282 -0.040193 0.006016 -0.021399 7.117890 -40.985400 0.000008 0.000006 -3.290040 -7.031600 -61.044500 -11.754300 -0.000006 -0.000006 -0.006104 0.239442 -6.852330
0.000000 0.000000 0.000000 0.000000 0.000000 -0.000000 191.842000 90.820000 -80.958600 89.499500 2.297120 -2.968850 15.735700 0.000005 -0.000001 43.633000 87.077500 -42.907000 8.984550 -0.406207 -0.000000 -3.710200 -4.300670 1.313590 16.377300 -0.000001 -0.000001 1.031570 2.239960 -2.505660 6.456720 -0.000001 -0.000000 6.418680 3.465450 0.327985 12.994200 -0.242716 4.980390 -92.221600 6.748860 -71.731700 5.348090 -0.000007 -0.000001 -70.183100 -9.621140 -6.931920 24.328600 0.000019 0.000005 33.683800 19.611200 -63.270900 22.291600 -0.000001 0.000005 48.646000 4.418150 17.933000 12.994500 -0.242716 -4.980390 89.513900 1.487430 -71.900500 -5.348130 -0.000001 -0.000004 -58.846100 -11.132100 16.965900 -24.328900 0.000322 -0.000009 0.477968 3.231390 -8.435580 -22.291500 -0.000108 -0.000004 45.586100 5.363410 -1.783720 -2.192480 -6.469440 -0.000000 -179.271000 -8.135040 9.422700 39.081100 -0.000007 -0.000012 -0.003144 0.012444 14.175200 40.985400 -0.000006 -0.000013 -1.193720 19.978800 -71.101800 11.754300 -0.000000 0.000003 0.002311 0.061490 -14.082700 -2.192510 6.469440 -0.000001 -176.741000 -3.810650 152.163000 -39.081100 -0.002282 -0.040193 0.005721 -0.019817 6.839630 -40.985400 0.000008 0.000006 -3.978870 -5.386810 -62.023900 -11.754300 -0.000006 -0.000006 -0.005444 0.233368 -7.100000
